<svg xmlns="http://www.w3.org/2000/svg" viewBox="0 0 24 24" width="24" height="24" color="currentColor" fill="none">
    <defs />
    <path fill="#141B34" d="M7.795,7.556 C7.795,4.03 10.821,1.25 14.455,1.25 L17.818,1.25 C18.078,1.25 18.335,1.262 18.567,1.31 C18.805,1.359 19.068,1.456 19.289,1.664 C19.725,2.074 19.75,2.678 19.75,3.111 L19.75,5.333 C19.75,5.766 19.725,6.37 19.289,6.78 C19.068,6.988 18.805,7.085 18.567,7.135 C18.335,7.183 18.078,7.194 17.818,7.194 L14.455,7.194 C14.172,7.194 14.023,7.399 14.023,7.556 L14.023,9.583 L16.433,9.583 C16.766,9.583 17.084,9.6 17.359,9.661 C17.634,9.722 17.958,9.848 18.194,10.142 C18.435,10.442 18.481,10.792 18.467,11.08 C18.453,11.361 18.379,11.665 18.287,11.968 L17.781,13.634 C17.677,13.977 17.521,14.406 17.13,14.682 C16.752,14.951 16.295,14.972 15.927,14.972 L14.023,14.972 L14.023,20.889 C14.023,21.322 13.998,21.926 13.562,22.336 C13.341,22.544 13.078,22.641 12.84,22.69 C12.607,22.738 12.351,22.75 12.091,22.75 L9.727,22.75 C9.468,22.75 9.211,22.738 8.978,22.69 C8.74,22.641 8.477,22.544 8.256,22.336 C7.82,21.926 7.795,21.322 7.795,20.889 L7.795,14.972 L6.182,14.972 C5.922,14.972 5.665,14.96 5.433,14.912 C5.195,14.863 4.932,14.766 4.711,14.558 C4.275,14.148 4.25,13.544 4.25,13.111 L4.25,11.444 C4.25,11.012 4.275,10.408 4.711,9.998 C4.932,9.79 5.195,9.692 5.433,9.643 C5.665,9.595 5.922,9.583 6.182,9.583 L7.795,9.583 Z M14.455,2.75 C11.561,2.75 9.295,4.944 9.295,7.556 L9.295,10.333 C9.295,10.748 8.96,11.083 8.545,11.083 L6.182,11.083 C5.98,11.083 5.851,11.093 5.768,11.106 C5.758,11.175 5.75,11.281 5.75,11.444 L5.75,13.111 C5.75,13.274 5.758,13.38 5.768,13.449 C5.851,13.463 5.98,13.472 6.182,13.472 L8.545,13.472 C8.96,13.472 9.295,13.808 9.295,14.222 L9.295,20.889 C9.295,21.052 9.303,21.158 9.313,21.227 C9.396,21.241 9.525,21.25 9.727,21.25 L12.091,21.25 C12.293,21.25 12.422,21.241 12.505,21.227 C12.515,21.158 12.523,21.052 12.523,20.889 L12.523,14.222 C12.523,13.808 12.858,13.472 13.273,13.472 L15.927,13.472 C16.096,13.472 16.194,13.464 16.252,13.453 C16.274,13.409 16.305,13.333 16.346,13.198 L16.852,11.532 C16.909,11.343 16.941,11.207 16.957,11.111 C16.843,11.094 16.676,11.083 16.433,11.083 L13.273,11.083 C12.858,11.083 12.523,10.748 12.523,10.333 L12.523,7.556 C12.523,6.485 13.432,5.694 14.455,5.694 L17.818,5.694 C18.02,5.694 18.149,5.685 18.232,5.671 C18.242,5.603 18.25,5.496 18.25,5.333 L18.25,3.111 C18.25,2.948 18.242,2.842 18.232,2.773 C18.149,2.759 18.02,2.75 17.818,2.75 Z" />
</svg>