<svg xmlns="http://www.w3.org/2000/svg" viewBox="0 0 24 24" width="24" height="24" color="currentColor" fill="none">
    <defs />
    <path fill="#141B34" d="M9.664,2.354 C9.901,2.501 10.048,2.593 10.162,2.654 C10.22,2.686 10.254,2.7 10.269,2.706 C10.285,2.705 10.323,2.702 10.392,2.689 C10.524,2.665 10.699,2.622 10.976,2.553 C11.77,2.355 12.587,2.25 13.5,2.25 C14.413,2.25 15.23,2.355 16.024,2.553 C16.301,2.622 16.476,2.665 16.608,2.689 C16.677,2.702 16.715,2.705 16.731,2.706 C16.746,2.7 16.78,2.686 16.838,2.654 C16.952,2.593 17.099,2.501 17.336,2.354 C18.396,1.691 19.204,1.408 19.786,1.303 C20.077,1.251 20.31,1.243 20.487,1.255 C20.575,1.26 20.648,1.271 20.707,1.282 C20.737,1.288 20.762,1.294 20.784,1.299 L20.839,1.315 C21.053,1.385 21.224,1.546 21.306,1.756 C21.796,3.012 21.808,4.381 21.495,5.64 C21.477,5.712 21.463,5.768 21.451,5.816 L21.445,5.843 L21.461,5.866 C21.49,5.907 21.523,5.955 21.565,6.015 C22.313,7.077 22.75,8.316 22.75,9.646 C22.75,11.997 22.185,13.654 21.106,14.833 C20.099,15.933 18.729,16.522 17.259,16.946 C17.558,17.472 17.75,18.072 17.75,18.758 L17.75,22 C17.75,22.414 17.414,22.75 17,22.75 C16.586,22.75 16.25,22.414 16.25,22 L16.25,18.758 C16.25,18.325 16.12,17.942 15.885,17.57 C15.459,16.895 15.691,15.823 16.624,15.566 C18.108,15.158 19.232,14.659 19.999,13.821 C20.748,13.003 21.25,11.757 21.25,9.646 C21.25,8.656 20.927,7.714 20.339,6.878 L20.328,6.863 L20.328,6.863 C20.254,6.758 20.179,6.651 20.122,6.557 C20.061,6.458 19.98,6.31 19.945,6.123 C19.91,5.936 19.932,5.769 19.953,5.655 C19.972,5.546 20.004,5.42 20.034,5.296 L20.035,5.296 L20.035,5.296 L20.039,5.278 C20.248,4.437 20.267,3.573 20.062,2.778 L20.052,2.779 C19.696,2.843 19.066,3.041 18.13,3.626 L18.112,3.637 C17.9,3.77 17.712,3.887 17.552,3.974 C17.387,4.063 17.191,4.154 16.966,4.189 C16.739,4.225 16.522,4.198 16.336,4.164 C16.153,4.131 15.933,4.076 15.683,4.014 L15.662,4.008 C14.987,3.841 14.292,3.75 13.5,3.75 C12.708,3.75 12.013,3.841 11.338,4.008 L11.317,4.013 C11.067,4.076 10.847,4.131 10.664,4.164 C10.478,4.198 10.261,4.225 10.034,4.189 C9.809,4.154 9.613,4.063 9.448,3.974 C9.288,3.887 9.1,3.77 8.888,3.637 L8.87,3.626 C7.934,3.041 7.304,2.843 6.948,2.779 L6.938,2.778 C6.733,3.573 6.752,4.437 6.961,5.278 L6.966,5.296 C6.996,5.42 7.028,5.546 7.047,5.655 C7.068,5.769 7.09,5.936 7.055,6.123 C7.02,6.31 6.939,6.458 6.878,6.557 C6.821,6.651 6.746,6.758 6.672,6.863 L6.661,6.878 C6.073,7.714 5.75,8.656 5.75,9.646 C5.75,11.757 6.252,13.003 7.001,13.821 C7.768,14.659 8.891,15.158 10.376,15.566 C11.309,15.823 11.541,16.895 11.115,17.57 C10.88,17.942 10.75,18.325 10.75,18.758 L10.75,20.543 C10.75,20.559 10.75,20.576 10.75,20.592 L10.75,22 C10.75,22.414 10.414,22.75 10,22.75 C9.586,22.75 9.25,22.414 9.25,22 L9.25,21.556 C7.762,21.887 6.342,21.802 5.058,21.243 C3.495,20.563 2.238,19.226 1.324,17.325 C1.145,16.951 1.302,16.503 1.675,16.324 C2.049,16.145 2.497,16.302 2.676,16.675 C3.477,18.342 4.505,19.367 5.657,19.868 C6.68,20.313 7.882,20.38 9.25,20.012 L9.25,18.758 C9.25,18.072 9.442,17.472 9.741,16.946 C8.271,16.522 6.901,15.933 5.894,14.833 C4.815,13.654 4.25,11.997 4.25,9.646 C4.25,8.316 4.687,7.077 5.435,6.015 C5.477,5.955 5.511,5.907 5.539,5.866 L5.555,5.843 L5.548,5.816 C5.537,5.768 5.523,5.712 5.505,5.64 C5.192,4.381 5.204,3.012 5.695,1.756 C5.776,1.546 5.947,1.385 6.161,1.315 L6.216,1.299 C6.238,1.294 6.263,1.288 6.293,1.282 C6.352,1.271 6.425,1.26 6.513,1.255 C6.69,1.243 6.923,1.251 7.214,1.303 C7.796,1.408 8.604,1.691 9.664,2.354 Z" />
</svg>