<svg xmlns="http://www.w3.org/2000/svg" viewBox="0 0 24 24" width="24" height="24" color="currentColor" fill="none">
    <defs />
    <path fill="#141B34" d="M11.455,8.75 C11.745,8.75 12.911,8.75 13.132,8.77 C13.372,8.792 13.633,8.843 13.884,8.99 C14.143,9.141 14.359,9.357 14.51,9.616 L14.523,9.637 C15.312,9.08 16.265,8.75 17.297,8.75 C19.992,8.75 22.75,11.045 22.75,14 L22.749,19.545 C22.749,19.978 22.749,20.375 22.705,20.698 C22.657,21.053 22.545,21.429 22.236,21.738 C21.927,22.047 21.551,22.159 21.196,22.207 C20.873,22.25 20.476,22.25 20.044,22.25 L19.455,22.25 C19.022,22.25 18.625,22.25 18.303,22.207 C17.947,22.159 17.572,22.047 17.263,21.738 C16.954,21.428 16.841,21.053 16.793,20.697 C16.75,20.375 16.75,19.978 16.75,19.545 L16.75,15 C16.75,14.543 16.412,14.25 16.088,14.25 C15.571,14.25 15.293,14.448 15.101,14.766 C14.877,15.139 14.75,15.729 14.75,16.5 L14.75,20.045 C14.75,20.478 14.75,20.874 14.707,21.197 C14.659,21.553 14.547,21.928 14.237,22.237 C13.928,22.546 13.553,22.659 13.197,22.707 C12.874,22.75 12.478,22.75 12.045,22.75 L11.455,22.75 C11.022,22.75 10.626,22.75 10.303,22.707 C9.947,22.659 9.572,22.546 9.263,22.237 C8.954,21.928 8.841,21.553 8.793,21.197 C8.75,20.874 8.75,20.478 8.75,20.045 L8.75,11.455 C8.75,11.022 8.75,10.626 8.793,10.303 C8.841,9.947 8.954,9.572 9.263,9.263 C9.572,8.954 9.947,8.841 10.303,8.793 C10.626,8.75 11.022,8.75 11.455,8.75 Z M3.955,8.75 L4.5,8.75 L4.545,8.75 C4.978,8.75 5.374,8.75 5.697,8.793 C6.053,8.841 6.428,8.954 6.737,9.263 C7.046,9.572 7.159,9.947 7.207,10.303 C7.25,10.626 7.25,11.022 7.25,11.455 L7.25,20.045 C7.25,20.478 7.25,20.874 7.207,21.197 C7.159,21.553 7.046,21.928 6.737,22.237 C6.428,22.546 6.053,22.659 5.697,22.707 C5.374,22.75 4.978,22.75 4.545,22.75 L3.955,22.75 C3.522,22.75 3.126,22.75 2.803,22.707 C2.447,22.659 2.072,22.546 1.763,22.237 C1.454,21.928 1.341,21.553 1.293,21.197 C1.25,20.874 1.25,20.478 1.25,20.045 L1.25,11.5 L1.25,11.455 C1.25,11.022 1.25,10.626 1.293,10.303 C1.341,9.947 1.454,9.572 1.763,9.263 C2.072,8.954 2.447,8.841 2.803,8.793 C3.126,8.75 3.522,8.75 3.955,8.75 Z M11.5,10.25 C11.007,10.25 10.713,10.252 10.503,10.28 C10.435,10.277 10.296,10.318 10.28,10.503 C10.252,10.713 10.25,11.007 10.25,11.5 L10.25,20 C10.25,20.493 10.252,20.787 10.28,20.997 C10.292,21.119 10.433,21.197 10.503,21.22 C10.713,21.248 11.007,21.25 11.5,21.25 L12,21.25 C12.493,21.25 12.787,21.248 12.997,21.22 C13.066,21.203 13.207,21.134 13.22,20.997 C13.248,20.787 13.25,20.493 13.25,20 L13.25,16.5 C13.25,15.615 13.387,14.705 13.817,13.992 C14.279,13.223 15.045,12.75 16.088,12.75 C17.324,12.75 18.25,13.801 18.25,15 L18.25,19.5 C18.25,19.993 18.252,20.287 18.28,20.497 C18.28,20.656 18.375,20.682 18.45,20.703 C18.47,20.708 18.488,20.713 18.503,20.72 C18.713,20.749 19.007,20.75 19.5,20.75 L19.999,20.75 C20.491,20.75 20.785,20.749 20.996,20.72 C21.065,20.694 21.207,20.614 21.219,20.497 C21.247,20.287 21.249,19.993 21.249,19.5 L21.25,14 C21.25,11.985 19.281,10.25 17.297,10.25 C16.219,10.25 15.244,10.777 14.597,11.628 C14.402,11.884 14.066,11.988 13.76,11.885 C13.455,11.782 13.25,11.496 13.25,11.174 C13.25,10.845 13.249,10.649 13.236,10.504 C13.228,10.353 13.072,10.281 12.996,10.264 C12.851,10.251 12.655,10.25 12.326,10.25 Z M2.823,10.323 L2.822,10.326 C2.821,10.328 2.819,10.331 2.817,10.336 C2.808,10.358 2.793,10.406 2.78,10.503 C2.752,10.713 2.75,11.007 2.75,11.5 L2.75,20 C2.75,20.493 2.752,20.787 2.78,20.997 C2.793,21.094 2.808,21.142 2.817,21.164 C2.819,21.169 2.821,21.172 2.822,21.174 L2.823,21.177 L2.826,21.178 C2.828,21.179 2.831,21.181 2.836,21.183 C2.858,21.192 2.906,21.207 3.003,21.22 C3.213,21.248 3.507,21.25 4,21.25 L4.5,21.25 C4.993,21.25 5.287,21.248 5.497,21.22 C5.594,21.207 5.642,21.192 5.664,21.183 C5.669,21.181 5.672,21.179 5.674,21.178 L5.677,21.177 L5.678,21.174 C5.679,21.172 5.681,21.169 5.683,21.164 C5.692,21.142 5.707,21.094 5.72,20.997 C5.748,20.787 5.75,20.493 5.75,20 L5.75,11.5 C5.75,11.007 5.748,10.713 5.72,10.503 C5.707,10.406 5.692,10.358 5.683,10.336 C5.681,10.331 5.679,10.328 5.678,10.326 L5.677,10.323 L5.674,10.322 C5.672,10.321 5.669,10.319 5.664,10.317 C5.642,10.308 5.594,10.293 5.497,10.28 C5.287,10.252 4.993,10.25 4.5,10.25 L4,10.25 C3.507,10.25 3.213,10.252 3.003,10.28 C2.906,10.293 2.858,10.308 2.836,10.317 C2.831,10.319 2.828,10.321 2.826,10.322 Z M1.25,4.25 C1.25,2.593 2.593,1.25 4.25,1.25 C5.907,1.25 7.25,2.593 7.25,4.25 C7.25,5.907 5.907,7.25 4.25,7.25 C2.593,7.25 1.25,5.907 1.25,4.25 Z M4.25,2.75 C3.422,2.75 2.75,3.422 2.75,4.25 C2.75,5.078 3.422,5.75 4.25,5.75 C5.078,5.75 5.75,5.078 5.75,4.25 C5.75,3.422 5.078,2.75 4.25,2.75 Z" />
</svg>